<svg width="512" height="512" viewBox="0 0 512 512" xmlns="http://www.w3.org/2000/svg">
  <!-- Background -->
  <rect width="512" height="512" fill="#8B5CF6" rx="64"/>
  
  <!-- Dog silhouette (left side) -->
  <g fill="#FFFFFF" opacity="0.95">
    <ellipse cx="170" cy="280" rx="60" ry="70"/>
    <ellipse cx="170" cy="200" rx="55" ry="55"/>
    <ellipse cx="140" cy="170" rx="15" ry="30"/>
    <ellipse cx="200" cy="170" rx="15" ry="30"/>
    <ellipse cx="130" cy="330" rx="18" ry="35"/>
    <ellipse cx="210" cy="330" rx="18" ry="35"/>
    <path d="M 190 360 Q 200 380 180 400 Q 170 390 160 400 Q 140 380 150 360 Z"/>
  </g>
  
  <!-- Cat silhouette (right side) -->
  <g fill="#FFFFFF" opacity="0.95">
    <ellipse cx="340" cy="280" rx="55" ry="65"/>
    <ellipse cx="340" cy="210" rx="50" ry="50"/>
    <path d="M 310 180 L 295 140 L 315 170 Z"/>
    <path d="M 370 180 L 385 140 L 365 170 Z"/>
    <ellipse cx="305" cy="330" rx="16" ry="33"/>
    <ellipse cx="375" cy="330" rx="16" ry="33"/>
    <path d="M 360 360 Q 340 380 340 400"/>
  </g>
  
  <!-- Heart between them -->
  <path d="M 256 240 L 236 220 Q 226 210 226 195 Q 226 175 240 170 Q 256 165 256 180 Q 256 165 272 170 Q 286 175 286 195 Q 286 210 276 220 Z" fill="#FF6B9D"/>
</svg>
